<?xml version="1.0" standalone="no"?>
<!DOCTYPE svg PUBLIC "-//W3C//DTD SVG 20010904//EN"
 "http://www.w3.org/TR/2001/REC-SVG-20010904/DTD/svg10.dtd">
<svg version="1.0" xmlns="http://www.w3.org/2000/svg"
 width="2200.000000pt" height="2200.000000pt" viewBox="0 0 2200.000000 2200.000000"
 preserveAspectRatio="xMidYMid meet">

<g transform="translate(0.000000,2200.000000) scale(0.100000,-0.100000)"
fill="#000000" stroke="none">
<path d="M155 21838 c-3 -7 -4 -4902 -3 -10878 l3 -10865 10875 0 10875 0 0
10875 0 10875 -10873 3 c-8693 2 -10874 0 -10877 -10z m11242 -3103 c156 -12
323 -30 478 -52 22 -3 47 -5 55 -5 32 0 253 -40 400 -73 85 -20 187 -42 225
-51 134 -29 604 -169 670 -200 17 -7 73 -29 125 -48 89 -32 170 -65 365 -149
84 -36 392 -188 460 -227 22 -12 69 -38 105 -58 109 -59 496 -303 588 -371
492 -365 586 -446 928 -793 239 -242 263 -267 380 -406 99 -118 131 -160 326
-422 89 -119 281 -416 360 -555 25 -44 57 -100 71 -125 46 -80 247 -480 242
-480 -3 0 12 -35 34 -77 21 -43 68 -157 105 -253 37 -96 73 -188 80 -205 8
-16 20 -52 29 -80 8 -27 38 -122 66 -210 27 -88 57 -187 65 -220 78 -315 135
-572 141 -640 2 -27 15 -126 29 -220 53 -357 60 -468 61 -950 0 -481 -8 -600
-60 -950 -13 -88 -27 -187 -30 -220 -6 -61 -84 -424 -110 -509 -8 -26 -12 -52
-10 -56 3 -5 1 -11 -5 -15 -6 -4 -8 -10 -6 -14 9 -14 -138 -479 -211 -666 -84
-216 -155 -385 -165 -391 -4 -3 -8 -12 -8 -21 0 -24 -210 -436 -305 -598 -49
-82 -93 -159 -99 -170 -24 -45 -307 -464 -329 -486 -13 -13 -43 -51 -67 -84
-306 -421 -799 -918 -1255 -1265 -60 -46 -112 -87 -115 -90 -31 -36 -443 -309
-613 -406 -73 -42 -137 -80 -142 -84 -6 -5 -51 -29 -100 -53 -50 -25 -113 -58
-141 -75 -28 -16 -62 -33 -75 -37 -13 -4 -78 -35 -144 -67 -66 -33 -151 -71
-190 -85 -38 -14 -88 -35 -110 -46 -48 -24 -529 -197 -565 -202 -14 -3 -63
-16 -110 -30 -146 -45 -343 -96 -400 -105 -30 -5 -131 -25 -225 -44 -178 -36
-490 -84 -562 -85 -24 0 -126 -8 -229 -16 -213 -17 -754 -20 -939 -5 -65 6
-184 14 -265 19 -159 11 -433 52 -660 101 -80 17 -161 33 -182 36 -20 2 -110
25 -200 50 -89 25 -201 56 -248 69 -47 12 -143 44 -215 70 -71 26 -150 53
-175 60 -25 7 -116 43 -203 79 -87 36 -161 66 -163 66 -23 0 -487 234 -658
332 -66 37 -123 68 -127 68 -4 0 -9 4 -11 8 -1 5 -58 42 -126 83 -125 76 -206
131 -462 318 -119 87 -320 246 -340 270 -3 4 -68 63 -145 133 -159 144 -385
371 -531 533 -54 61 -101 112 -105 115 -51 39 -569 744 -569 775 0 3 -24 43
-53 88 -110 167 -270 467 -385 717 -83 182 -201 466 -222 535 -7 22 -33 99
-58 170 -25 72 -58 177 -74 235 -72 267 -128 489 -132 531 -3 26 -13 80 -21
120 -42 197 -94 563 -100 695 -1 45 -5 86 -8 91 -9 15 -5 1013 5 1019 5 3 7
18 3 33 -11 52 48 494 100 745 13 65 22 122 20 127 -3 4 -1 10 5 14 6 4 8 10
5 15 -6 9 83 363 110 439 8 24 13 46 10 49 -3 3 0 11 6 19 6 7 9 13 6 13 -7 0
11 57 73 230 28 80 54 156 56 169 3 13 12 40 21 60 8 20 43 106 78 191 34 85
81 193 103 240 22 47 61 130 86 185 26 54 50 102 55 105 5 3 27 43 49 90 22
47 86 162 142 255 57 94 111 186 122 205 24 41 59 93 69 100 3 3 23 31 44 63
75 119 300 428 317 435 4 2 33 36 64 75 246 307 590 653 919 926 55 46 116 97
135 114 111 97 562 408 705 487 33 18 74 43 91 56 17 12 94 55 170 95 76 39
146 78 154 85 8 7 57 31 109 53 52 23 110 50 130 62 19 12 67 34 106 49 38 15
102 42 140 60 98 45 165 71 165 64 0 -4 6 -2 13 3 33 27 539 194 732 242 269
67 621 140 715 147 36 3 108 11 160 19 81 12 327 37 480 48 137 10 733 5 897
-8z m4193 -14280 c0 -41 -1 -75 -2 -75 -2 0 -86 -11 -187 -24 -102 -14 -189
-23 -193 -20 -4 3 -8 29 -8 58 l0 53 173 40 c236 56 217 59 217 -32z m-13667
-170 c18 -9 147 -118 287 -244 l255 -229 3 234 2 234 125 0 125 0 0 -377 c0
-357 -1 -380 -20 -410 -38 -63 -115 -88 -180 -60 -19 9 -150 119 -290 245
l-255 230 -3 -234 -2 -234 -125 0 -125 0 0 379 c0 376 0 378 23 412 41 62 117
84 180 54z m3500 1 c18 -7 148 -117 289 -245 142 -127 260 -231 263 -231 3 0
5 106 5 235 l0 235 125 0 125 0 0 -357 c0 -229 -4 -372 -11 -397 -21 -74 -99
-119 -179 -101 -20 4 -119 86 -297 247 l-268 240 -3 -236 -2 -236 -125 0 -125
0 0 368 c0 362 0 369 23 412 35 71 107 97 180 66z m2890 3 c21 -5 51 -22 67
-37 17 -15 151 -202 299 -417 l269 -390 -250 -3 c-137 -1 -359 -1 -493 0
l-244 3 77 107 77 107 173 0 c94 1 172 4 172 8 0 12 -205 312 -212 310 -6 -2
-59 -75 -311 -434 l-72 -103 -163 0 -164 0 35 48 c19 26 141 198 272 382 130
184 249 348 263 364 53 57 127 77 205 55z m3243 -8 c51 -23 72 -50 279 -351
93 -135 207 -299 253 -365 l83 -120 -487 -3 c-268 -1 -489 0 -492 2 -2 3 30
53 72 111 l77 105 175 0 175 0 -108 160 c-59 88 -110 160 -113 159 -3 0 -90
-121 -194 -269 l-190 -270 -158 0 c-87 0 -158 2 -158 5 0 3 103 150 228 328
126 177 246 347 267 377 58 82 86 111 130 131 51 24 109 24 161 0z m9159 0
c22 -10 50 -29 62 -43 13 -13 142 -197 289 -409 l265 -384 -487 -3 c-268 -1
-489 0 -492 2 -2 3 30 52 73 110 l76 106 175 2 174 3 -107 157 c-59 86 -110
155 -114 152 -4 -2 -92 -123 -195 -269 l-187 -265 -159 0 c-87 0 -158 2 -158
4 0 9 537 765 562 793 55 59 150 78 223 44z m-19112 2 c3 -5 -32 -55 -77 -113
l-82 -105 -272 -3 -272 -2 0 -45 0 -45 331 0 c209 0 329 -4 327 -10 -1 -5 -34
-50 -73 -100 l-69 -90 -258 0 -258 0 0 -50 0 -50 356 0 c299 0 355 -2 351 -14
-3 -7 -41 -59 -84 -115 l-78 -101 -407 0 -408 0 0 425 0 425 484 0 c267 0 487
-3 489 -7z m2377 -4 c0 -6 -36 -57 -80 -114 l-80 -103 -253 -4 c-252 -3 -252
-3 -308 -31 -78 -38 -114 -90 -114 -167 0 -76 34 -128 106 -164 52 -25 58 -26
246 -26 l193 0 0 50 0 50 -215 0 c-118 0 -215 3 -215 8 0 4 34 49 76 100 l77
92 273 0 274 0 0 -265 0 -265 -332 0 c-258 0 -347 4 -396 15 -145 34 -266 128
-325 252 -29 62 -32 77 -32 163 1 105 15 150 77 236 58 81 194 155 318 173 87
13 710 13 710 0z m1130 3 c0 -5 -36 -55 -81 -113 l-80 -104 -272 -5 -272 -5
-3 -42 -3 -43 330 0 c182 0 331 -4 331 -9 0 -5 -32 -49 -71 -100 l-70 -91
-257 -2 -257 -3 -3 -47 -3 -48 355 0 c240 0 356 -3 356 -10 0 -6 -36 -58 -81
-115 l-81 -105 -409 0 -409 0 0 418 c0 230 3 422 7 425 9 10 973 9 973 -1z
m1560 -142 l0 -150 245 0 245 0 0 150 0 151 133 -3 132 -3 3 -422 2 -423 -135
0 -135 0 0 160 0 160 -245 0 -245 0 0 -160 0 -160 -135 0 -135 0 0 425 0 425
135 0 135 0 0 -150z m3285 128 c111 -33 188 -88 228 -163 33 -62 30 -183 -6
-251 -29 -57 -84 -108 -134 -126 -18 -7 -33 -15 -33 -18 0 -3 48 -53 106 -110
58 -58 114 -117 125 -132 l20 -28 -180 0 -179 0 -93 110 -92 110 -194 0 -193
0 0 -110 0 -110 -135 0 -135 0 0 220 0 220 393 0 c362 0 395 1 427 18 61 33
63 100 3 139 -25 16 -61 18 -425 21 -219 2 -398 5 -398 8 0 2 39 54 87 115
l87 111 336 -5 c257 -3 347 -8 385 -19z m693 -405 l2 -423 -135 0 -135 0 0
425 0 426 133 -3 132 -3 3 -422z m3122 415 c0 -7 -37 -59 -81 -115 l-81 -103
-269 0 -269 0 0 -45 0 -45 330 0 c182 0 330 -3 330 -6 0 -3 -33 -48 -72 -100
l-73 -93 -257 -1 -258 0 0 -50 0 -50 349 0 c193 0 352 -4 355 -8 3 -4 -32 -56
-77 -115 l-82 -106 -407 -1 -408 0 0 425 0 425 485 0 c381 0 485 -3 485 -12z
m390 -298 l0 -310 319 0 c176 0 322 -3 324 -8 3 -4 -32 -54 -77 -112 l-81
-105 -378 -3 -377 -2 0 425 0 425 135 0 135 0 0 -310z m1733 303 c3 -5 -33
-56 -80 -115 l-84 -108 -270 0 -269 0 0 -45 0 -45 331 0 c198 0 329 -4 327 -9
-1 -5 -34 -50 -73 -100 l-70 -90 -257 0 -258 -1 0 -50 0 -50 355 0 c195 0 355
-3 355 -6 0 -3 -37 -55 -82 -115 l-83 -109 -407 0 -408 0 0 425 0 425 484 0
c267 0 487 -3 489 -7z m1165 -3 c-2 -6 -39 -58 -83 -115 l-80 -104 -147 -1
-148 0 0 -310 0 -310 -140 0 -140 0 0 310 0 310 -195 2 -196 3 87 113 86 112
480 0 c324 0 479 -3 476 -10z m838 -1 c211 -29 324 -130 324 -289 0 -75 -12
-117 -48 -172 -26 -39 -85 -83 -126 -94 -33 -8 -33 -15 2 -41 15 -11 74 -70
131 -131 l103 -112 -183 0 -184 1 -90 109 -90 109 -192 1 -193 0 0 -110 0
-110 -140 0 -140 0 2 218 3 217 402 5 c388 5 403 6 430 26 33 25 42 74 19 108
-26 41 -79 46 -475 46 -204 0 -371 4 -371 8 0 4 38 56 85 115 l85 107 284 0
c157 0 319 -5 362 -11z m772 -416 l2 -423 -140 0 -140 0 0 418 c0 230 3 422 7
426 4 3 66 5 137 4 l131 -3 3 -422z m1248 411 c-3 -8 -40 -60 -81 -114 l-76
-98 -247 -4 c-246 -3 -247 -3 -302 -30 -153 -75 -157 -258 -9 -332 l53 -26
333 0 c211 0 333 -4 333 -10 0 -5 -37 -57 -82 -115 l-81 -105 -256 0 c-282 0
-338 8 -439 59 -91 46 -156 111 -199 199 -36 72 -38 81 -38 172 1 105 15 151
77 236 58 81 194 155 318 173 30 5 201 9 379 10 290 1 323 -1 317 -15z"/>
<path d="M10500 18574 c-25 -2 -103 -8 -175 -14 -445 -35 -923 -127 -1370
-262 -1762 -531 -3241 -1780 -4068 -3433 -318 -636 -537 -1335 -636 -2030
-208 -1450 53 -2915 745 -4181 329 -603 702 -1094 1200 -1584 342 -336 611
-554 1004 -815 260 -172 426 -267 725 -415 1170 -579 2425 -799 3740 -654
2249 247 4250 1652 5260 3694 404 818 624 1643 686 2570 15 229 6 819 -16
1040 -112 1139 -480 2173 -1105 3110 -415 622 -961 1197 -1565 1648 -895 669
-1956 1110 -3047 1266 -342 49 -479 59 -918 61 -228 1 -435 1 -460 -1z m-1173
-4094 c370 -53 450 -69 593 -117 85 -28 229 -88 278 -115 17 -10 49 -27 70
-39 236 -133 448 -373 548 -621 17 -43 35 -79 40 -79 4 0 16 25 26 56 84 265
307 523 577 666 178 94 384 165 591 203 283 53 120 50 2622 53 l2318 3 6 -24
c5 -20 -16 -56 -117 -198 -67 -95 -186 -263 -264 -373 -78 -110 -167 -236
-198 -280 -32 -44 -95 -134 -142 -200 -46 -66 -115 -163 -153 -215 l-68 -95
-1724 -5 c-1608 -5 -1729 -6 -1783 -23 -138 -41 -212 -134 -224 -279 -12 -138
45 -254 150 -306 106 -53 82 -52 1678 -52 l1478 0 12 -21 c12 -23 27 2 -258
-412 -62 -89 -157 -227 -212 -307 -55 -80 -138 -201 -185 -268 -46 -68 -92
-133 -102 -143 -17 -18 -49 -19 -1133 -19 -1069 0 -1119 -1 -1179 -19 -169
-52 -227 -128 -226 -301 0 -78 4 -102 22 -135 42 -78 78 -105 194 -147 l63
-23 2062 -3 c2005 -2 2063 -3 2073 -21 10 -20 -8 -47 -640 -942 -140 -199
-268 -381 -285 -406 l-29 -44 -1636 4 c-1802 4 -1694 0 -2045 68 -219 43 -450
132 -630 242 -157 97 -314 254 -411 412 -53 85 -124 234 -124 260 0 26 -19 17
-26 -12 -18 -83 -82 -217 -153 -321 -137 -200 -368 -376 -612 -467 -24 -9 -53
-21 -64 -26 -95 -41 -364 -103 -555 -128 -198 -26 -596 -31 -2623 -31 l-2107
0 -12 24 c-12 27 -32 -4 287 445 66 93 154 217 195 275 41 59 146 206 234 329
87 122 169 238 181 258 13 20 31 43 40 52 15 16 147 17 1723 17 1798 1 1760 0
1854 44 49 24 106 82 132 136 18 38 21 63 21 155 0 93 -4 116 -22 150 -55 103
-150 151 -328 166 -60 5 -750 9 -1532 9 l-1423 0 -6 25 c-6 26 -13 15 420 640
99 143 215 312 258 375 l79 115 1132 5 1132 5 59 23 c163 61 215 134 216 298
0 127 -46 209 -146 254 -126 58 34 54 -2194 57 -1125 1 -2053 5 -2064 7 -13 4
-17 11 -14 28 2 13 98 156 213 318 115 162 241 340 280 396 38 56 158 225 265
378 l195 276 1632 0 c1017 0 1658 -4 1700 -10z"/>
<path d="M10790 12427 c-64 -131 -128 -223 -215 -306 -70 -66 -215 -171 -236
-171 -22 0 -5 -18 34 -35 130 -57 305 -205 417 -351 55 -73 127 -213 156 -301
15 -47 34 -71 34 -42 0 20 80 173 127 243 26 38 77 99 114 135 65 65 211 171
236 171 28 0 10 27 -29 45 -235 103 -470 366 -564 629 -14 42 -27 76 -28 76 0
0 -21 -42 -46 -93z"/>
</g>
</svg>
